<?xml version="1.0" standalone="no"?>
<!DOCTYPE svg PUBLIC "-//W3C//DTD SVG 20010904//EN"
 "http://www.w3.org/TR/2001/REC-SVG-20010904/DTD/svg10.dtd">
<svg version="1.0" xmlns="http://www.w3.org/2000/svg"
 width="450.000000pt" height="450.000000pt" viewBox="0 0 450.000000 450.000000"
 preserveAspectRatio="xMidYMid meet">

<g transform="translate(0.000000,450.000000) scale(0.100000,-0.100000)"
fill="#16B364" stroke="none">
<path d="M2095 4490 c-366 -26 -724 -142 -1029 -332 -283 -177 -547 -441 -724
-724 -369 -592 -439 -1359 -183 -2002 181 -453 499 -835 907 -1090 589 -367
1353 -439 1994 -186 453 177 842 501 1098 910 367 589 439 1354 186 1994 -177
453 -501 842 -910 1098 -391 243 -879 365 -1339 332z m720 -983 c131 -18 221
-38 297 -67 137 -51 281 -281 389 -618 22 -70 46 -143 53 -162 l12 -35 114 -8
c135 -10 168 -23 220 -89 77 -97 111 -260 76 -366 -26 -76 -71 -112 -188 -146
-53 -16 -99 -34 -101 -40 -2 -6 0 -42 6 -81 15 -112 14 -595 -2 -700 -13 -85
-16 -92 -55 -130 -65 -63 -134 -80 -331 -80 -88 0 -187 4 -220 9 -93 13 -122
52 -159 219 -6 24 -11 28 -29 24 -177 -43 -1024 -44 -1262 -1 -30 5 -30 5 -42
-55 -14 -75 -47 -144 -77 -164 -54 -36 -351 -49 -480 -22 -88 19 -151 55 -175
103 -41 80 -48 294 -28 836 l2 49 -99 33 c-54 18 -110 41 -124 51 -108 81 -97
335 20 468 54 62 86 74 212 82 58 3 109 9 114 12 5 3 25 61 45 128 96 317 238
580 356 655 83 52 243 88 486 108 170 13 839 4 970 -13z"/>
<path d="M1830 3339 c-156 -10 -300 -33 -344 -54 -67 -32 -165 -218 -248 -468
-49 -150 -53 -182 -25 -215 23 -29 56 -31 204 -12 278 35 461 45 848 45 387 0
574 -10 849 -45 130 -17 152 -17 176 -5 54 28 53 70 -5 245 -56 167 -152 365
-202 418 -33 34 -49 42 -113 56 -41 9 -115 21 -165 26 -123 14 -809 21 -975 9z"/>
<path d="M1301 2264 c-115 -58 -150 -200 -75 -307 41 -57 94 -82 176 -82 58 0
72 4 110 30 144 102 115 318 -51 374 -54 18 -103 13 -160 -15z"/>
<path d="M3062 2203 c-155 -89 -176 -109 -155 -148 12 -20 299 -185 323 -185
26 0 50 27 50 55 0 27 -18 41 -132 105 -43 24 -78 46 -78 49 0 4 46 33 103 66
77 45 103 66 105 83 4 27 -23 62 -47 62 -9 0 -85 -39 -169 -87z"/>
<path d="M1671 1833 c-11 -10 -24 -32 -27 -50 -10 -50 30 -83 149 -121 173
-56 251 -67 472 -67 173 0 214 3 304 23 121 27 268 77 294 100 26 23 23 83 -6
110 -31 29 -41 28 -160 -13 -143 -48 -266 -68 -432 -68 -165 0 -285 19 -433
68 -119 40 -132 41 -161 18z"/>
</g>
</svg>
